PathFileType	4	(X/Y/Z)	C:\Users\Basilio\Documents\Thesis Gigler\squatting_fais\c3dfiles\041\SLS_pre_back2\markers_experimental.trc
DataRate	CameraRate	NumFrames	NumMarkers	Units	OrigDataRate	OrigDataStartFrame	OrigNumFrames
200.000000	200.000000	4	63	mm	200.000000	229	1837
Frame#	Time	FHD			LBHD			RBHD			C7			T10			CLAV			LSHO			LUUPA			LMUPA			LDUPA			LLEP			LMEP			LRAD			LUL			LRFIN			RSHO			RUPA1			RMUPA			RDUPA			RLEP			RMEP			RRAD			RUL			RUFIN			LASI			RASI			USACR			LSACR			RSACR			LTHI1			LTHI2			LTHI3			LTHI4			LLFC			LMFC			LTIB1			LTIB2			LTIB3			LTIB4			LLMAL			LMMAL			LHEE			LMT1			LMT2			LMT5			RTHI			RTHI2			RTHI3			RTHI4			RLFC			RMFC			RTIB1			RTIB2			RTIB3			RTIB4			RLMAL			RMMAL			RHEE			RMT1			RMT2			RMT5			*61			*62			
		X1	Y1	Z1	X2	Y2	Z2	X3	Y3	Z3	X4	Y4	Z4	X5	Y5	Z5	X6	Y6	Z6	X7	Y7	Z7	X8	Y8	Z8	X9	Y9	Z9	X10	Y10	Z10	X11	Y11	Z11	X12	Y12	Z12	X13	Y13	Z13	X14	Y14	Z14	X15	Y15	Z15	X16	Y16	Z16	X17	Y17	Z17	X18	Y18	Z18	X19	Y19	Z19	X20	Y20	Z20	X21	Y21	Z21	X22	Y22	Z22	X23	Y23	Z23	X24	Y24	Z24	X25	Y25	Z25	X26	Y26	Z26	X27	Y27	Z27	X28	Y28	Z28	X29	Y29	Z29	X30	Y30	Z30	X31	Y31	Z31	X32	Y32	Z32	X33	Y33	Z33	X34	Y34	Z34	X35	Y35	Z35	X36	Y36	Z36	X37	Y37	Z37	X38	Y38	Z38	X39	Y39	Z39	X40	Y40	Z40	X41	Y41	Z41	X42	Y42	Z42	X43	Y43	Z43	X44	Y44	Z44	X45	Y45	Z45	X46	Y46	Z46	X47	Y47	Z47	X48	Y48	Z48	X49	Y49	Z49	X50	Y50	Z50	X51	Y51	Z51	X52	Y52	Z52	X53	Y53	Z53	X54	Y54	Z54	X55	Y55	Z55	X56	Y56	Z56	X57	Y57	Z57	X58	Y58	Z58	X59	Y59	Z59	X60	Y60	Z60	X61	Y61	Z61	X62	Y62	Z62	X63	Y63	Z63	

230	1.145	-135.5121002197266	1711.8466796875	-1099.3427734375	-322.2001037597657	1703.286743164063	-1179.30419921875	-306.9372558593751	1713.540405273438	-1026.09716796875	-405.4300842285157	1555.744262695313	-1104.071655273438	-445.5049133300782	1236.406372070313	-1075.592895507813	-256.1060791015626	1478.193237304688	-1099.25634765625	-335.5184631347657	1524.638061523438	-1275.152221679688	-396.5152282714845	1339.98974609375	-1357.802490234375	-364.8585510253907	1303.320190429688	-1352.750610351563	-415.6238403320314	1274.746826171875	-1373.130126953125	-427.292938232422	1226.148681640625	-1378.195678710938	-435.5211181640626	1190.953125	-1297.613647460938	-295.7035522460938	978.7838134765627	-1372.4765625	-363.2826538085938	969.553894042969	-1403.92431640625	-268.6887207031251	913.1513671875002	-1408.569458007813	-319.7205200195313	1545.67822265625	-932.026306152344	-414.2073364257814	1359.641723632813	-824.4290771484377	-368.0530395507813	1339.323608398438	-821.3131103515627	-401.6230468750001	1293.447143554688	-803.5192871093752	-403.1974487304689	1248.749145507813	-792.3109130859377	-427.0934448242189	1219.220092773438	-875.9421386718752	-286.6914367675782	1009.953308105469	-818.330749511719	-349.6425476074219	996.9299926757815	-776.8941040039065	-250.9911346435547	944.6819458007815	-791.6696777343752	-244.2121582031251	1056.384399414063	-1160.411376953125	-280.1014099121094	1053.407836914063	-934.3567504882815	-441.7609863281251	1122.284301757813	-1070.5751953125	-451.8613586425782	1095.910522460938	-1098.488647460938	-462.3734130859376	1096.222290039063	-1045.177856445313	-352.2143859863282	850.191833496094	-1229.123413085938	-322.7591247558594	773.230651855469	-1213.271240234375	-277.2657775878907	775.5439453125002	-1198.719482421875	-353.1094970703126	721.7722167968751	-1208.900390625	-352.4532470703126	538.8969726562501	-1180.997192382813	-363.4247741699219	528.3690795898439	-1060.131713867188	-323.4414367675782	352.8811645507813	-1106.525512695313	-362.0447692871094	302.0750122070313	-1171.120727539063	-325.8132324218751	302.6831970214844	-1139.654296875	-329.4349975585938	227.6682586669922	-1102.176635742188	-378.2860412597657	127.7171707153321	-1136.27197265625	-347.9039001464844	139.1997375488282	-1053.485229492188	-444.3060302734376	112.0416870117188	-1096.545288085938	-241.4521484375001	63.70623016357423	-1050.9013671875	-230.1457977294922	56.14657211303712	-1094.027221679688	-271.8583984375001	40.27915191650391	-1153.230224609375	-378.6653137207032	787.2341308593752	-859.1873779296877	-334.5062561035157	738.8511352539064	-846.9503173828127	-302.1107482910157	744.1765136718751	-847.8140869140627	-350.2229919433594	655.4876708984376	-857.7810058593752	-349.0844421386719	547.5296630859376	-851.028991699219	-315.0171203613282	511.2590942382814	-958.1133422851565	-414.7535095214845	395.8887939453126	-852.260681152344	-529.3957519531251	386.1150817871095	-862.9530029296877	-494.8722229003907	357.3755493164063	-851.7078857421877	-501.2643127441407	301.8280334472657	-874.8732910156252	-617.9651489257814	239.2012176513672	-875.460144042969	-569.8675537109376	239.6552886962891	-945.078796386719	-681.8431396484376	224.3278045654297	-933.6682128906252	-487.4554443359376	131.9790191650391	-916.0806884765627	-491.6315002441407	133.2002258300782	-864.2659912109377	-546.2128295898439	131.7429962158203	-823.927917480469	-4216.972167968751	853.1019287109377	-3944.539306640626	nan	nan	nan	
231	1.15	-134.5155792236328	1710.729248046875	-1099.597534179688	-321.6882934570313	1703.56396484375	-1179.041381835938	-305.6654663085938	1713.533813476563	-1025.979125976563	-405.3308410644532	1555.83251953125	-1103.9013671875	-445.6068115234376	1236.430053710938	-1075.490844726563	-256.5161437988282	1477.907836914063	-1098.972778320313	-335.5001220703126	1524.709350585938	-1274.99951171875	-396.8176879882814	1340.192626953125	-1357.59375	-364.9754028320313	1303.438354492188	-1352.670532226563	-415.8146972656251	1274.942749023438	-1373.064819335938	-427.4346008300782	1226.3623046875	-1378.070678710938	-435.6749877929689	1191.079833984375	-1297.509887695313	-295.9344787597657	979.026306152344	-1372.46630859375	-363.5959472656251	969.706970214844	-1403.819458007813	-268.8476257324219	913.2166748046877	-1408.523803710938	-319.7150268554688	1545.5947265625	-931.8565673828127	-414.2474060058595	1359.654174804688	-824.3191528320315	-368.1741027832032	1339.323120117188	-821.2173461914065	-401.6796875000001	1293.42578125	-803.357604980469	-403.251678466797	1248.729858398438	-792.1962890625002	-427.3097229003907	1219.304321289063	-876.0859985351565	-286.8453369140626	1009.894348144531	-818.3389892578127	-349.7615356445313	996.9248046875002	-776.8939208984377	-251.2426452636719	944.627380371094	-791.6358032226565	-244.2365112304688	1056.435180664063	-1160.345336914063	-280.0880737304688	1053.4365234375	-934.239440917969	-441.821258544922	1122.2646484375	-1070.462768554688	-451.9226074218751	1095.891723632813	-1098.4111328125	-462.4869689941407	1096.195678710938	-1045.160766601563	-352.2212829589844	850.2366943359377	-1229.075561523438	-322.8128967285157	773.2600097656252	-1213.102172851563	-277.1967468261719	775.5494384765627	-1198.640747070313	-352.9381713867188	721.7390747070314	-1208.7001953125	-352.2908020019532	538.9003295898439	-1180.907958984375	-363.2857055664063	528.3544311523439	-1060.100463867188	-323.3712463378907	352.8839111328126	-1106.414672851563	-361.9535217285157	302.0366210937501	-1171.030883789063	-325.5259094238282	302.6744079589844	-1139.473754882813	-329.3877258300782	227.6615905761719	-1102.111328125	-378.3179626464844	127.7383270263672	-1136.251708984375	-347.9056701660157	139.2025299072266	-1053.491943359375	-444.3103637695314	112.0324172973633	-1096.546508789063	-241.2249145507813	63.46686172485353	-1050.93310546875	-230.1312408447266	56.07222747802736	-1094.005615234375	-271.8882751464844	40.26860809326173	-1153.226928710938	-378.7561035156251	787.3326416015627	-859.069763183594	-334.6605834960938	738.9325561523439	-846.8101806640627	-302.2585754394532	744.2521972656251	-847.5512695312502	-350.3310241699219	655.5640258789064	-857.610290527344	-349.1671142578126	547.5077514648439	-850.8135375976565	-315.2074890136719	511.3174743652345	-957.7742919921877	-414.8160705566407	395.9248352050782	-851.9302978515627	-529.5003662109376	386.0815734863282	-862.8030395507815	-495.0255737304689	357.4071960449219	-851.5025634765627	-501.2809448242189	301.8794555664063	-874.740905761719	-617.9717407226564	239.1784362792969	-875.3793945312502	-569.8887939453126	239.6853485107422	-945.0115966796877	-681.8866577148439	224.3044433593751	-933.6345214843752	-487.4393615722657	131.9835662841797	-916.0307617187502	-491.6583251953126	133.1759338378907	-864.238708496094	-546.1847534179689	131.7160186767578	-823.9244384765627	-4216.617187500001	853.0962524414065	-3944.650878906251	nan	nan	nan	
232	1.155	-133.622802734375	1709.67236328125	-1099.825317382813	-320.9788818359376	1703.503173828125	-1178.748901367188	-304.3284912109376	1713.590454101563	-1025.745483398438	-405.2761535644532	1555.912231445313	-1103.703735351563	-445.7094116210939	1236.468505859375	-1075.4130859375	-256.6308898925782	1477.854248046875	-1098.775512695313	-335.4747009277344	1524.755126953125	-1274.833618164063	-397.0418395996095	1340.331787109375	-1357.451904296875	-365.1339111328126	1303.565795898438	-1352.565185546875	-415.9012451171876	1275.138793945313	-1372.913818359375	-427.6573791503907	1226.525756835938	-1377.96630859375	-435.8558654785157	1191.217895507813	-1297.434692382813	-296.1308898925782	979.151306152344	-1372.463989257813	-363.8841552734376	969.840026855469	-1403.822875976563	-269.1116027832032	913.3208007812502	-1408.505126953125	-319.6895751953126	1545.56005859375	-931.6460571289065	-414.2553100585939	1359.68359375	-824.199645996094	-368.1817016601563	1339.245483398438	-821.0822753906252	-401.8231506347657	1293.412353515625	-803.1931152343752	-403.3504943847657	1248.703491210938	-792.0906982421877	-427.3993225097657	1219.269653320313	-875.7877197265627	-287.1104736328126	1009.827026367188	-818.2982177734377	-350.1069335937501	996.8472290039065	-776.854187011719	-251.4097137451172	944.5487060546877	-791.5969238281252	-244.3151550292969	1056.497802734375	-1160.222290039063	-280.1709899902344	1053.4296875	-934.1445922851565	-441.9914855957032	1122.25146484375	-1070.34619140625	-451.9913024902345	1095.8740234375	-1098.34765625	-462.5056762695314	1096.201293945313	-1045.052734375	-352.2691955566407	850.2145996093752	-1228.977294921875	-322.8114318847657	773.3071289062502	-1212.985229492188	-277.2138061523438	775.6956787109377	-1198.573486328125	-352.9265441894532	721.7821044921876	-1208.545654296875	-352.0803833007813	538.9211425781251	-1180.818603515625	-363.1983337402344	528.3786010742189	-1060.002319335938	-323.3517761230469	352.8958129882813	-1106.290893554688	-361.8557739257813	302.0524291992188	-1170.658325195313	-325.3679809570313	302.6532592773438	-1139.36376953125	-329.3562927246094	227.6818389892579	-1102.008544921875	-378.2698059082032	127.7709884643555	-1136.190307617188	-347.8922119140626	139.1779479980469	-1053.456176757813	-444.324920654297	112.0415267944336	-1096.534301757813	-241.4303283691407	63.70671844482423	-1050.927734375	-230.1535339355469	56.14819335937501	-1093.940551757813	-271.7817687988282	40.23408508300782	-1153.215454101563	-378.8622436523438	787.409362792969	-858.9436645507815	-334.7198181152344	738.9048461914064	-846.5862426757815	-302.4953308105469	744.3803100585939	-847.3611450195315	-350.3626708984376	655.6079711914064	-857.4646606445315	-349.2823181152344	547.5342407226564	-850.6007080078127	-315.2939453125001	511.3447875976564	-957.5108642578127	-414.779266357422	396.1661071777345	-851.5524902343752	-529.6356811523439	386.1422424316407	-862.5980224609377	-495.0555725097657	357.4389648437501	-851.3460693359377	-501.2828674316407	301.8633728027344	-874.6071777343752	-618.0280151367189	239.1405944824219	-875.216979980469	-569.8989868164064	239.7123565673829	-944.933044433594	-681.8872680664064	224.3406982421876	-933.544372558594	-487.4090270996095	131.9458465576172	-915.9826660156252	-491.6606445312501	133.1153869628907	-864.235290527344	-546.1746826171876	131.6845245361328	-823.9031982421877	-4217.045898437501	853.0701293945315	-3944.542724609376	nan	nan	nan	
233	1.16	-132.8565521240235	1708.790405273438	-1100.059936523438	-320.1900634765626	1703.611572265625	-1178.528076171875	-302.4992065429688	1713.35498046875	-1026.188720703125	-405.2190856933595	1556.024047851563	-1103.55126953125	-445.8227539062501	1236.560668945313	-1075.307250976563	-256.6316223144532	1477.814086914063	-1098.610473632813	-335.4944763183594	1524.858764648438	-1274.649047851563	-397.121551513672	1340.471801757813	-1357.31884765625	-365.2101745605469	1303.692749023438	-1352.432373046875	-415.6707763671876	1275.090576171875	-1372.798950195313	-427.8746032714845	1226.7080078125	-1377.857177734375	-435.9996643066407	1191.40478515625	-1297.2578125	-296.2842102050782	979.2534790039065	-1372.543579101563	-364.1553649902344	969.9785766601565	-1403.82861328125	-269.2917785644532	913.419128417969	-1408.509033203125	-319.6785278320313	1545.5205078125	-931.454772949219	-414.3410644531251	1359.68896484375	-824.1016235351565	-368.2753601074219	1339.173706054688	-820.951110839844	-401.987762451172	1293.42919921875	-803.0433349609377	-403.408905029297	1248.652587890625	-791.9819946289065	-427.5318908691407	1219.261840820313	-875.699890136719	-287.2099914550782	1009.792541503906	-818.212097167969	-350.2796020507813	996.8070068359377	-776.8273925781252	-251.5523223876954	944.5429687500002	-791.5260009765627	-244.3672485351563	1056.61962890625	-1160.159057617188	-280.2538146972657	1053.451782226563	-934.0634765625002	-442.0888671875001	1122.209228515625	-1070.261596679688	-452.0788574218751	1095.837890625	-1098.287963867188	-462.6228942871095	1096.171630859375	-1045.028442382813	-352.2680664062501	850.2465820312502	-1228.8935546875	-322.7305297851563	773.274353027344	-1212.856689453125	-277.1564941406251	775.7470703125002	-1198.392211914063	-352.8278503417969	721.7502441406251	-1208.313842773438	-351.9618835449219	538.9901733398439	-1180.70068359375	-363.0429077148438	528.2935180664064	-1059.843139648438	-323.2725219726563	352.8767700195313	-1106.20947265625	-361.7025451660157	302.0822448730469	-1170.552612304688	-325.1769104003907	302.6512756347657	-1139.188842773438	-329.3278503417969	227.676498413086	-1101.900268554688	-378.3007202148438	127.7907943725586	-1136.170166015625	-347.9034423828126	139.1771850585938	-1053.432006835938	-444.305145263672	112.0314483642578	-1096.549682617188	-241.277572631836	63.49745941162111	-1050.979125976563	-230.1475677490235	56.09609985351564	-1093.98291015625	-271.8218383789063	40.26711654663087	-1153.216064453125	-378.9396057128907	787.4692382812502	-858.8354492187502	-334.8411254882813	738.9442138671876	-846.448913574219	-302.5093383789063	744.5127563476564	-846.9584960937502	-350.4311523437501	655.6480712890626	-857.3843994140627	-349.3100280761719	547.5580444335939	-850.3513183593752	-315.3368530273438	511.3844299316407	-957.2559814453127	-414.9626464843751	396.0665283203126	-851.5571289062502	-529.7054443359376	386.1487426757814	-862.442565917969	-495.0484619140626	357.4900817871094	-851.2061767578127	-501.361053466797	301.8380126953126	-874.3919677734377	-618.0740966796876	239.0933074951172	-875.1241455078127	-569.9692993164064	239.7465972900391	-944.8199462890627	-681.9262084960939	224.3407592773438	-933.4929809570315	-487.5930786132814	131.8701324462891	-916.533630371094	-491.6732788085939	133.1804351806641	-864.135192871094	-546.1740722656251	131.6516571044922	-823.8630981445315	-4217.141113281251	853.1846923828127	-3944.794189453126	nan	nan	nan	
